<svg width="20" height="20" viewBox="0 0 20 20" fill="none" xmlns="http://www.w3.org/2000/svg">
<path d="M10.0014 15.0016C12.7632 15.0016 15.002 12.7628 15.002 10.001C15.002 7.23931 12.7632 5.00049 10.0014 5.00049C7.2397 5.00049 5.00089 7.23931 5.00089 10.001C5.00089 12.7628 7.2397 15.0016 10.0014 15.0016Z" fill="#FF9629"/>
<path fill-rule="evenodd" clip-rule="evenodd" d="M3.75049 9.99859C3.75049 9.30762 3.1914 8.74854 2.50043 8.74854H1.25006C0.559088 8.74854 0 9.30762 0 9.99859C0 10.6896 0.559088 11.2487 1.25006 11.2487H2.50012C3.1914 11.2487 3.75049 10.6896 3.75049 9.99859Z" fill="#FF9629"/>
<path fill-rule="evenodd" clip-rule="evenodd" d="M3.81392 14.4181L2.92888 15.3035C2.44042 15.7916 2.44042 16.5829 2.92888 17.071C3.41702 17.5592 4.20831 17.5592 4.69677 17.071L5.58212 16.186C6.07027 15.6979 6.07027 14.9063 5.58212 14.4181C5.09335 13.9296 4.30238 13.9296 3.81392 14.4181Z" fill="#FF9629"/>
<path fill-rule="evenodd" clip-rule="evenodd" d="M10.0014 16.2495C9.31046 16.2495 8.75137 16.8086 8.75137 17.4996V18.7499C8.75137 19.4409 9.31046 20 10.0014 20C10.6924 20 11.2515 19.4409 11.2515 18.7499L11.2502 17.4996C11.2515 16.8086 10.6912 16.2495 10.0014 16.2495Z" fill="#FF9629"/>
<path fill-rule="evenodd" clip-rule="evenodd" d="M16.1876 14.4195C15.7004 13.9301 14.9091 13.9301 14.421 14.4182C13.9328 14.9063 13.9328 15.6979 14.421 16.1861L15.3051 17.0699C15.7932 17.5605 16.5845 17.558 17.0726 17.0699C17.5608 16.5817 17.562 15.7917 17.0726 15.3023L16.1876 14.4195Z" fill="#FF9629"/>
<path fill-rule="evenodd" clip-rule="evenodd" d="M18.7527 8.74854L17.4999 8.75104C16.8114 8.74853 16.2523 9.30762 16.2523 9.99859C16.2498 10.6896 16.8114 11.2487 17.4999 11.2487H18.7502C19.4437 11.2512 20.0003 10.6896 20.0003 9.99859C20.0015 9.30887 19.4437 8.74854 18.7527 8.74854Z" fill="#FF9629"/>
<path fill-rule="evenodd" clip-rule="evenodd" d="M16.1876 5.58047L17.0714 4.69637C17.5633 4.20697 17.5595 3.41693 17.0714 2.92847C16.5842 2.43876 15.7932 2.43876 15.3051 2.92722L14.421 3.81352C13.9328 4.29948 13.9328 5.09045 14.421 5.57891C14.9066 6.07018 15.7004 6.06768 16.1876 5.58047Z" fill="#FF9629"/>
<path fill-rule="evenodd" clip-rule="evenodd" d="M10.0014 3.74768C10.6912 3.75268 11.2515 3.18859 11.2515 2.50012V1.25007C11.2515 0.556597 10.6924 8.35238e-06 10.0014 8.35238e-06C9.31046 -0.00249176 8.75137 0.556597 8.75137 1.24788L8.75387 2.50044C8.75137 3.18859 9.31046 3.74768 10.0014 3.74768Z" fill="#FF9629"/>
<path fill-rule="evenodd" clip-rule="evenodd" d="M3.81641 5.57926C4.30237 6.06741 5.09115 6.06741 5.58086 5.57801C6.07276 5.0933 6.07026 4.29983 5.58336 3.81262L4.69926 2.92883C4.20861 2.43787 3.41983 2.44162 2.93137 2.92883C2.43915 3.41604 2.43915 4.20701 2.92761 4.69547L3.81641 5.57926Z" fill="#FF9629"/>
</svg>
